PathFileType	4	(X/Y/Z)	Patient4_TMGait_0pt3_03_right_30.trc.trc
DataRate	CameraRate	NumFrames	NumMarkers	Units	OrigDataRate	OrigDataStartFrame	OrigNumFrames
54.901960784314	54.901960784314	5	33	mm	54.901960784314	18	       141
Frame#	Time	Sacral			L.Shoulder			Chest			R.Shoulder			Neck			R.ASIS			L.ASIS			R.Thigh.Superior			R.Thigh.Lateral			R.Thigh.Inferior			R.Patella			L.Thigh.Superior			L.Thigh.Lateral			L.Thigh.Inferior			L.Patella			L.Shank.Superior			L.Shank.Lateral			L.Shank.Inferior			R.Shank.Superior			R.Shank.Lateral			R.Shank.Inferior			R.Heel			R.Midfoot.Superior			R.Midfoot.Lateral			R.Toe			L.Heel			L.Midfoot.Lateral			L.Midfoot.Superior			L.Toe			L.Elbow			L.Wrist			R.Elbow			R.Wrist			
		X1	Y1	Z1	X2	Y2	Z2	X3	Y3	Z3	X4	Y4	Z4	X5	Y5	Z5	X6	Y6	Z6	X7	Y7	Z7	X8	Y8	Z8	X9	Y9	Z9	X10	Y10	Z10	X11	Y11	Z11	X12	Y12	Z12	X13	Y13	Z13	X14	Y14	Z14	X15	Y15	Z15	X16	Y16	Z16	X17	Y17	Z17	X18	Y18	Z18	X19	Y19	Z19	X20	Y20	Z20	X21	Y21	Z21	X22	Y22	Z22	X23	Y23	Z23	X24	Y24	Z24	X25	Y25	Z25	X26	Y26	Z26	X27	Y27	Z27	X28	Y28	Z28	X29	Y29	Z29	X30	Y30	Z30	X31	Y31	Z31	X32	Y32	Z32	X33	Y33	Z33	

18	56.319642857143	699.977407947961	1016.169013551968	439.833804037227	941.062005644897	1431.340757839567	284.648579528208	1006.137155177157	1357.978468713832	460.878914195092	899.583198381209	1438.853868730410	617.771126759450	892.555129024346	1494.446904846220	438.824615479622	911.994618963187	943.186274754135	586.387789451958	930.390806707038	957.302962934788	312.096247383814	982.189623724472	768.381979860278	554.569504350272	937.355092122078	651.630041347207	630.266323313701	1019.671516854620	606.756056692916	547.655140297768	1048.630704594440	517.508208971884	570.420921757701	949.213269272098	734.129124768925	346.869637253423	854.739177257061	624.540967540052	283.244820983787	924.367235753712	542.312521253248	355.956003650536	916.497506212166	473.117414019715	366.672399729975	880.610375546094	404.174141788446	357.934896422780	782.449520727327	300.076778945857	301.848761053555	809.130723036448	185.778226865273	378.677880841344	1015.343276814865	430.985182333626	584.664513004083	942.409952011940	333.535279116558	654.492708051727	991.296385452495	233.794660868318	605.352945044469	863.227985808131	64.114913788435	588.849248920749	1036.857088312551	117.448467300630	622.211900720546	950.413634501380	51.343031777448	658.075233299115	1155.479603280986	65.105432200337	640.145369975797	662.801539956070	39.445974842119	415.095009795721	739.178173562462	35.753711031236	337.022287633534	823.198627906655	94.813657882985	367.339224080569	951.391594829910	39.792823868645	341.215123010948	1038.725311475195	1112.569367329836	139.379661628306	1285.144879506408	1031.959174146395	168.552604985754	721.113568062690	1137.324927873111	704.801710876033	678.105779624930	878.795053958632	710.130913930768	
19	56.337857142857	700.835082666735	1016.002205088110	441.981206199164	941.856971231613	1431.032996226212	287.315415205553	1006.618508972208	1357.889443045780	463.696649534425	899.897143862372	1439.205009898535	620.240727818491	892.585286113692	1494.192190163243	441.310034846489	912.072509399194	942.451412067530	589.109902924630	931.461111631286	957.038312045209	314.809409287334	979.574456928951	765.298194609850	558.953832503736	931.573990473747	649.071343681625	633.911024886941	1014.057536096816	603.520934809966	551.985572247164	1042.408010989972	516.845658034809	573.574755130584	947.236170269759	732.955321099807	349.415239834537	851.451698990192	624.754097992363	284.537324037517	919.547876708848	541.412758190552	357.035026844186	910.617442557285	472.549941347111	367.474468692372	875.057484591309	404.025315870346	358.482341754104	776.713719768330	300.113970692705	302.246684893679	803.483868827110	185.657363631944	378.929509168648	1013.632853649605	429.987933823564	587.421540795080	946.254563368633	327.991091589103	657.358578858459	1000.411684412281	231.012602734690	607.180862834916	881.156147317239	54.912952226966	590.719078018662	1052.753662014885	116.068130305284	622.804685093399	969.624666415061	45.585467608547	659.137992474826	1174.265805230806	69.114498654939	639.396646649410	657.266257676696	39.225985125145	415.119524205992	733.600097398928	35.664135198288	337.047566816373	817.593179820086	94.751398567080	367.435472021578	945.827062887433	39.818497950601	341.261471838259	1043.895007583024	1114.954003889456	141.248718514051	1293.637778575535	1046.946077163603	171.022577176426	720.507001348949	1138.641160450252	706.626198616041	678.207086626515	879.700846931128	710.912038395715	
20	56.356071428571	701.968716821418	1015.309244974235	444.508941000576	942.262284751089	1430.512866146047	290.353610620276	1007.056896050223	1357.572273641038	466.760985804873	900.281845525005	1439.088794661309	623.172549213231	892.479290980204	1493.627566596981	444.244019613456	912.623384256325	941.307249881638	591.932333676181	932.783098453999	956.562593119807	317.640917106286	977.747929593807	762.036973182184	563.422056819201	926.520073932791	646.184689539798	637.347747100612	1009.475534511553	600.257821571486	556.231757352016	1036.918143283985	515.688619764735	576.576690046250	945.849301689381	731.646958395408	352.046390345238	848.748090263192	624.776475004350	286.001736465860	915.351632695937	540.378997472555	358.236702937575	905.411189417597	471.785690137121	368.405405434201	870.026158436404	403.660589443385	359.160760280666	771.321967810402	300.106024959040	302.726624842835	798.003178613782	185.426379049183	379.215119534099	1011.865311967694	428.547853278865	590.043912998459	948.822513042907	323.079201327634	659.653323734282	1007.256594474242	228.539568406028	608.746684424012	895.218249964037	48.102486273098	591.802117005447	1064.859005385294	114.860560268069	623.288943213161	984.291252124845	41.441693960742	659.868344072362	1188.289457058814	72.008509382797	639.278106948663	651.722703540912	38.989500670163	415.142536200167	728.025407679419	35.559493196366	337.070844975010	811.981326849604	94.684457825668	367.539406351188	940.266174481068	39.833727995600	341.307897492999	1048.524728637993	1117.057807780913	143.410858074419	1300.838174080160	1061.155058355295	173.564665978462	721.263514231766	1138.617024801205	709.063534702547	680.159736538236	879.207174331391	712.571458369681	
21	56.374285714286	703.390010356480	1014.170469268991	447.402507934672	942.302414197305	1429.868331944297	293.783888443883	1007.452890132298	1357.115417359741	470.102581291869	900.694017182177	1438.572456402187	626.581139944736	892.232951508642	1492.825887895665	447.645319636111	913.679677599476	939.865321633082	594.864852002880	934.380448887676	955.952047942883	320.607019691596	976.898913445448	758.834706864558	567.844509729436	922.507252734721	643.158310948592	640.458170173943	1006.238615143293	597.200632259493	560.275441066584	1032.521392521218	514.181525794808	579.338971491423	945.087110680061	730.245204423505	354.734989489012	846.625710433828	624.650103484799	287.650264201076	911.791571971862	539.247969712062	359.564373379862	900.908938767369	470.854591953789	369.470770033253	865.524457347316	403.118291378554	359.977526901889	766.279288155937	300.098120525179	303.296480993362	792.695431775750	185.119533801112	379.527429946198	1010.318175894796	426.730598965014	592.440749722558	950.263290766708	318.828759356833	661.364966854887	1011.867890566465	226.256196207234	609.993845766651	905.095894305358	43.463882893761	592.161963210357	1073.092382021393	113.611488958694	623.631992285722	994.201212966292	38.668327781718	660.309744558938	1197.587663252385	73.473303052517	639.735705769750	646.175618008087	38.772521181650	415.156686721597	722.461995021938	35.454505856136	337.092028409462	806.377128125667	94.623845325174	367.639796047314	934.713993442900	39.830684415701	341.349048860527	1052.519801143540	1118.884798230566	145.894532161179	1306.733337132879	1074.428117865450	176.188489538877	723.258898706253	1137.356242747681	712.114166931132	683.798322848443	877.462420032615	715.166830005840	
22	56.392500000000	705.097709641911	1012.695643541558	450.641936223471	942.031056045739	1429.194689384103	297.611281374345	1007.816604690233	1356.612727982665	473.741747143182	901.101623575914	1437.746451702733	630.458941532724	891.857384769919	1491.875198922623	451.512662109076	915.254435608363	938.262239968652	597.924444897266	936.255922216041	955.290762858002	323.727770805655	977.152705756074	755.902795874238	572.099612536243	919.788804277762	640.184056325818	643.172935482752	1004.552491697380	594.535408483482	564.019449942498	1029.484371869013	512.465856159858	581.792335497494	944.944536991745	728.805040938059	357.456958368488	845.052769089624	624.430406568798	289.492023363558	908.859381185995	538.068215425454	361.017755814032	897.119651390959	469.797564237607	370.667562174477	861.545925967832	402.450480187250	360.934086211412	761.578436385385	300.146311516908	303.967853973851	787.566084284495	184.782809074554	379.859522870950	1009.244425538749	424.630540299008	594.535259821991	950.857572220455	315.243242194815	662.556913475969	1014.456099531941	224.070858775465	610.887972384525	910.823934500987	40.674571880713	591.942989348248	1077.656758243139	112.174021215229	623.799118759014	999.536852477371	36.985739674017	660.524027399335	1202.516326682255	73.390943729381	640.613178937514	640.632645559547	38.627282989365	415.156176260181	716.918813713766	35.373552652161	337.113075956625	800.800657011559	94.583534499500	367.725649905263	929.175368675619	39.800469018075	341.379343799318	1055.803377365417	1120.443547935365	148.717787228861	1311.339762794874	1086.618229909452	178.909477557677	726.338370361552	1135.032575197255	715.763383254181	688.960421031487	874.675882052133	718.726849056584	
